  0
SECTION
  2
HEADER
  9
$ACADVER
  1
AC1009
  9
$DWGCODEPAGE
  3
ANSI_1252
  0
ENDSEC
  0
SECTION
  2
TABLES
  0
TABLE
  2
LTYPE
  5
431
 70
20
  0
LTYPE
  5
40F
  2
CONTINUOUS
 70
0
  3
Solid line
 72
65
 73
0
 40
0.0
  0
LTYPE
  5
410
  2
CENTER
 70
0
  3
Center ____ _ ____ _ ____ _ ____ _ ____ _ ____
 72
65
 73
4
 40
2.0
 49
1.25
 49
-0.25
 49
0.25
 49
-0.25
  0
LTYPE
  5
411
  2
DASHED
 70
0
  3
Dashed __ __ __ __ __ __ __ __ __ __ __ __ __ _
 72
65
 73
2
 40
0.75
 49
0.5
 49
-0.25
  0
LTYPE
  5
412
  2
PHANTOM
 70
0
  3
Phantom ______  __  __  ______  __  __  ______
 72
65
 73
6
 40
2.5
 49
1.25
 49
-0.25
 49
0.25
 49
-0.25
 49
0.25
 49
-0.25
  0
LTYPE
  5
413
  2
HIDDEN
 70
0
  3
Hidden __ __ __ __ __ __ __ __ __ __ __ __ __ __
 72
65
 73
2
 40
9.525
 49
6.345
 49
-3.175
  0
LTYPE
  5
43B
  2
CENTERX2
 70
0
  3
Center (2x) ________  __  ________  __  ________
 72
65
 73
4
 40
3.5
 49
2.5
 49
-0.25
 49
0.5
 49
-0.25
  0
LTYPE
  5
43C
  2
CENTER2
 70
0
  3
Center (.5x) ____ _ ____ _ ____ _ ____ _ ____
 72
65
 73
4
 40
1.0
 49
0.625
 49
-0.125
 49
0.125
 49
-0.125
  0
LTYPE
  5
43D
  2
DASHEDX2
 70
0
  3
Dashed (2x) ____  ____  ____  ____  ____  ____
 72
65
 73
2
 40
1.2
 49
1.0
 49
-0.2
  0
LTYPE
  5
43E
  2
DASHED2
 70
0
  3
Dashed (.5x) _ _ _ _ _ _ _ _ _ _ _ _ _ _
 72
65
 73
2
 40
0.3
 49
0.25
 49
-0.05
  0
LTYPE
  5
43F
  2
PHANTOMX2
 70
0
  3
Phantom (2x)____________    ____    ____    ____________
 72
65
 73
6
 40
4.25
 49
2.5
 49
-0.25
 49
0.5
 49
-0.25
 49
0.5
 49
-0.25
  0
LTYPE
  5
440
  2
PHANTOM2
 70
0
  3
Phantom (.5x) ___ _ _ ___ _ _ ___ _ _ ___ _ _ ___
 72
65
 73
6
 40
1.25
 49
0.625
 49
-0.125
 49
0.125
 49
-0.125
 49
0.125
 49
-0.125
  0
LTYPE
  5
441
  2
DASHDOT
 70
0
  3
Dash dot __ . __ . __ . __ . __ . __ . __ . __
 72
65
 73
4
 40
1.4
 49
1.0
 49
-0.2
 49
0.0
 49
-0.2
  0
LTYPE
  5
442
  2
DASHDOTX2
 70
0
  3
Dash dot (2x) ____  .  ____  .  ____  .  ____
 72
65
 73
4
 40
2.4
 49
2.0
 49
-0.2
 49
0.0
 49
-0.2
  0
LTYPE
  5
443
  2
DASHDOT2
 70
0
  3
Dash dot (.5x) _ . _ . _ . _ . _ . _ . _ . _
 72
65
 73
4
 40
0.7
 49
0.5
 49
-0.1
 49
0.0
 49
-0.1
  0
LTYPE
  5
444
  2
DOT
 70
0
  3
Dot .  .  .  .  .  .  .  .  .  .  .  .  .  .  .  .
 72
65
 73
2
 40
0.2
 49
0.0
 49
-0.2
  0
LTYPE
  5
445
  2
DOTX2
 70
0
  3
Dot (2x) .    .    .    .    .    .    .    .
 72
65
 73
2
 40
0.4
 49
0.0
 49
-0.4
  0
LTYPE
  5
446
  2
DOT2
 70
0
  3
Dot (.5) . . . . . . . . . . . . . . . . . . .
 72
65
 73
2
 40
0.1
 49
0.0
 49
-0.1
  0
LTYPE
  5
447
  2
DIVIDE
 70
0
  3
Divide __ . . __ . . __ . . __ . . __ . . __
 72
65
 73
6
 40
1.6
 49
1.0
 49
-0.2
 49
0.0
 49
-0.2
 49
0.0
 49
-0.2
  0
LTYPE
  5
448
  2
DIVIDEX2
 70
0
  3
Divide (2x) ____  . .  ____  . .  ____  . .  ____
 72
65
 73
6
 40
2.6
 49
2.0
 49
-0.2
 49
0.0
 49
-0.2
 49
0.0
 49
-0.2
  0
LTYPE
  5
449
  2
DIVIDE2
 70
0
  3
Divide(.5x) _ . _ . _ . _ . _ . _ . _ . _
 72
65
 73
6
 40
0.8
 49
0.5
 49
-0.1
 49
0.0
 49
-0.1
 49
0.0
 49
-0.1
  0
ENDTAB
  0
TABLE
  2
STYLE
  5
433
 70
18
  0
STYLE
  5
417
  2
STANDARD
 70
0
 40
0.0
 41
1.0
 50
0.0
 71
0
 42
0.2
  3
txt
  4

  0
STYLE
  5
44A
  2
OpenSans
 70
0
 40
0.0
 41
1.0
 50
0.0
 71
0
 42
1.0
  3
OpenSans-Regular.ttf
  4

  0
STYLE
  5
44F
  2
OpenSansCondensed-Light
 70
0
 40
0.0
 41
1.0
 50
0.0
 71
0
 42
1.0
  3
OpenSansCondensed-Light.ttf
  4

  0
ENDTAB
  0
TABLE
  2
VIEW
  5
434
 70
0
  0
ENDTAB
  0
ENDSEC
0
SECTION
2
ENTITIES
0
POLYLINE
8
SHEET_BORDER
62
14
66
1
70
0
0
VERTEX
8
SHEET_BORDER
70
0
10
0
20
0
0
VERTEX
8
SHEET_BORDER
70
0
10
0
20
1220.0
0
VERTEX
8
SHEET_BORDER
70
0
10
2440.0
20
1220.0
0
VERTEX
8
SHEET_BORDER
70
0
10
2440.0
20
0
0
VERTEX
8
SHEET_BORDER
70
0
10
0
20
0
0
SEQEND
0
POLYLINE
8
CUTTING_LINES
62
91
66
1
70
0
0
VERTEX
8
CUTTING_LINES
70
0
10
765.9999999999999
20
668.0000999999995
0
VERTEX
8
CUTTING_LINES
70
0
10
766.0
20
1218.0000999999995
0
VERTEX
8
CUTTING_LINES
70
0
10
1.9999999999999998
20
1218.0000999999993
0
VERTEX
8
CUTTING_LINES
70
0
10
1.9999999999999325
20
668.0000999999994
0
VERTEX
8
CUTTING_LINES
70
0
10
765.9999999999999
20
668.0000999999995
0
SEQEND
0
CIRCLE
8
HOLES_diameter_15_depth_14
62
8
10
34.0
20
705.0001
40
7.5
0
CIRCLE
8
HOLES_diameter_15_depth_14
62
8
10
34.0
20
1153.0001
40
7.5
0
CIRCLE
8
HOLES_diameter_15_depth_14
62
8
10
734.0
20
705.0001
40
7.5
0
CIRCLE
8
HOLES_diameter_15_depth_14
62
8
10
734.0
20
1153.0001
40
7.5
0
TEXT
8
TEXT
10
384.0
20
943.0001
1
011
40
22
7
OpenSans-Regular
72
0
73
0
11
384.0
21
943.0001
0
TEXT
8
TEXT
10
0
20
-30
1
011. Floor
40
22
7
OpenSans-Regular
72
0
73
0
11
0
21
-30
0
POLYLINE
8
CUTTING_LINES
62
91
66
1
70
0
0
VERTEX
8
CUTTING_LINES
70
0
10
1.9999999999999318
20
664.0001
0
VERTEX
8
CUTTING_LINES
70
0
10
1.9999999999998685
20
146.00009999999997
0
VERTEX
8
CUTTING_LINES
70
0
10
765.9999999999999
20
146.00009999999997
0
VERTEX
8
CUTTING_LINES
70
0
10
765.9999999999999
20
664.0001
0
VERTEX
8
CUTTING_LINES
70
0
10
1.9999999999999318
20
664.0001
0
SEQEND
0
TEXT
8
TEXT
10
384.0
20
405.0001
1
015
40
22
7
OpenSans-Regular
72
0
73
0
11
384.0
21
405.0001
0
TEXT
8
TEXT
10
0
20
-60
1
015. Active Layer Board
40
22
7
OpenSans-Regular
72
0
73
0
11
0
21
-60
0
POLYLINE
8
CUTTING_LINES
62
91
66
1
70
0
0
VERTEX
8
CUTTING_LINES
70
0
10
1420.0
20
668.0000999999999
0
VERTEX
8
CUTTING_LINES
70
0
10
1420.0
20
1218.0000999999997
0
VERTEX
8
CUTTING_LINES
70
0
10
770.0
20
1218.0000999999997
0
VERTEX
8
CUTTING_LINES
70
0
10
769.9999999999999
20
668.0000999999999
0
VERTEX
8
CUTTING_LINES
70
0
10
1420.0
20
668.0000999999999
0
SEQEND
0
TEXT
8
TEXT
10
1095.0
20
943.0001
1
002
40
22
7
OpenSans-Regular
72
0
73
0
11
1095.0
21
943.0001
0
TEXT
8
TEXT
10
0
20
-90
1
002. Right panel
40
22
7
OpenSans-Regular
72
0
73
0
11
0
21
-90
0
POLYLINE
8
CUTTING_LINES
62
91
66
1
70
0
0
VERTEX
8
CUTTING_LINES
70
0
10
769.9999999999999
20
664.0001
0
VERTEX
8
CUTTING_LINES
70
0
10
769.9999999999999
20
114.00009999999997
0
VERTEX
8
CUTTING_LINES
70
0
10
1419.9999999999998
20
114.00009999999997
0
VERTEX
8
CUTTING_LINES
70
0
10
1420.0
20
664.0001
0
VERTEX
8
CUTTING_LINES
70
0
10
769.9999999999999
20
664.0001
0
SEQEND
0
CIRCLE
8
HOLES_diameter_3_depth_3
62
8
10
887.5
20
627.0001
40
1.5
0
CIRCLE
8
HOLES_diameter_3_depth_3
62
8
10
855.5
20
627.0001
40
1.5
0
CIRCLE
8
HOLES_diameter_3_depth_3
62
8
10
1329.5
20
627.0001
40
1.5
0
CIRCLE
8
HOLES_diameter_3_depth_3
62
8
10
1297.5
20
627.0001
40
1.5
0
CIRCLE
8
HOLES_diameter_10_depth_12
62
8
10
779.0
20
627.0001
40
5.0
0
CIRCLE
8
HOLES_diameter_10_depth_12
62
8
10
779.0
20
179.0001
40
5.0
0
CIRCLE
8
HOLES_diameter_8_depth_11
62
8
10
779.0
20
595.0001
40
4.0
0
CIRCLE
8
HOLES_diameter_8_depth_11
62
8
10
779.0
20
211.0001
40
4.0
0
CIRCLE
8
HOLES_diameter_10_depth_12
62
8
10
1411.0
20
640.0001
40
5.0
0
CIRCLE
8
HOLES_diameter_10_depth_12
62
8
10
1411.0
20
608.0001
40
5.0
0
CIRCLE
8
HOLES_diameter_10_depth_12
62
8
10
1396.0
20
152.5001
40
5.0
0
CIRCLE
8
HOLES_diameter_10_depth_12
62
8
10
1364.0
20
152.5001
40
5.0
0
CIRCLE
8
HOLES_diameter_5_depth_10
62
8
10
1083.5
20
625.0001
40
2.5
0
CIRCLE
8
HOLES_diameter_5_depth_10
62
8
10
1147.5
20
625.0001
40
2.5
0
CIRCLE
8
HOLES_diameter_5_depth_10
62
8
10
1019.5
20
625.0001
40
2.5
0
CIRCLE
8
HOLES_diameter_5_depth_10
62
8
10
1083.5
20
209.0001
40
2.5
0
CIRCLE
8
HOLES_diameter_5_depth_10
62
8
10
1147.5
20
209.0001
40
2.5
0
CIRCLE
8
HOLES_diameter_5_depth_10
62
8
10
1019.5
20
209.0001
40
2.5
0
POLYLINE
8
GROOVES__depth_5
6
DASHED
62
30
66
1
70
0
0
VERTEX
8
GROOVES__depth_5
70
0
10
1419.9999999999998
20
139.00009999999997
0
VERTEX
8
GROOVES__depth_5
70
0
10
782.9999999999999
20
139.00009999999997
0
VERTEX
8
GROOVES__depth_5
70
0
10
782.9999999999999
20
130.00009999999997
0
VERTEX
8
GROOVES__depth_5
70
0
10
1419.9999999999998
20
130.00009999999997
0
VERTEX
8
GROOVES__depth_5
70
0
10
1419.9999999999998
20
139.00009999999997
0
SEQEND
0
TEXT
8
TEXT
10
1095.0
20
389.0001
1
001
40
22
7
OpenSans-Regular
72
0
73
0
11
1095.0
21
389.0001
0
TEXT
8
TEXT
10
0
20
-120
1
001. Left Board
40
22
7
OpenSans-Regular
72
0
73
0
11
0
21
-120
0
POLYLINE
8
CUTTING_LINES
62
91
66
1
70
0
0
VERTEX
8
CUTTING_LINES
70
0
10
2074.0
20
668.0000999999996
0
VERTEX
8
CUTTING_LINES
70
0
10
2074.0
20
1218.0000999999997
0
VERTEX
8
CUTTING_LINES
70
0
10
1424.0
20
1218.0000999999995
0
VERTEX
8
CUTTING_LINES
70
0
10
1424.0
20
668.0000999999995
0
VERTEX
8
CUTTING_LINES
70
0
10
2074.0
20
668.0000999999996
0
SEQEND
0
CIRCLE
8
HOLES_diameter_3_depth_3
62
8
10
1956.5
20
705.0001
40
1.5
0
CIRCLE
8
HOLES_diameter_3_depth_3
62
8
10
1988.5
20
705.0001
40
1.5
0
CIRCLE
8
HOLES_diameter_3_depth_3
62
8
10
1514.5
20
705.0001
40
1.5
0
CIRCLE
8
HOLES_diameter_3_depth_3
62
8
10
1546.5
20
705.0001
40
1.5
0
CIRCLE
8
HOLES_diameter_10_depth_12
62
8
10
2065.0
20
705.0001
40
5.0
0
CIRCLE
8
HOLES_diameter_10_depth_12
62
8
10
2065.0
20
1153.0001
40
5.0
0
CIRCLE
8
HOLES_diameter_8_depth_11
62
8
10
2065.0
20
737.0001
40
4.0
0
CIRCLE
8
HOLES_diameter_8_depth_11
62
8
10
2065.0
20
1121.0001
40
4.0
0
CIRCLE
8
HOLES_diameter_10_depth_12
62
8
10
1433.0
20
692.0001
40
5.0
0
CIRCLE
8
HOLES_diameter_10_depth_12
62
8
10
1433.0
20
724.0001
40
5.0
0
CIRCLE
8
HOLES_diameter_10_depth_12
62
8
10
1448.0
20
1179.5001
40
5.0
0
CIRCLE
8
HOLES_diameter_10_depth_12
62
8
10
1480.0
20
1179.5001
40
5.0
0
CIRCLE
8
HOLES_diameter_5_depth_10
62
8
10
1760.5
20
707.0001
40
2.5
0
CIRCLE
8
HOLES_diameter_5_depth_10
62
8
10
1696.5
20
707.0001
40
2.5
0
CIRCLE
8
HOLES_diameter_5_depth_10
62
8
10
1824.5
20
707.0001
40
2.5
0
CIRCLE
8
HOLES_diameter_5_depth_10
62
8
10
1760.5
20
1123.0001
40
2.5
0
CIRCLE
8
HOLES_diameter_5_depth_10
62
8
10
1696.5
20
1123.0001
40
2.5
0
CIRCLE
8
HOLES_diameter_5_depth_10
62
8
10
1824.5
20
1123.0001
40
2.5
0
POLYLINE
8
GROOVES__depth_5
6
DASHED
62
30
66
1
70
0
0
VERTEX
8
GROOVES__depth_5
70
0
10
1424.0
20
1193.0000999999995
0
VERTEX
8
GROOVES__depth_5
70
0
10
2061.0
20
1193.0000999999997
0
VERTEX
8
GROOVES__depth_5
70
0
10
2061.0
20
1202.0000999999997
0
VERTEX
8
GROOVES__depth_5
70
0
10
1424.0
20
1202.0000999999995
0
VERTEX
8
GROOVES__depth_5
70
0
10
1424.0
20
1193.0000999999995
0
SEQEND
0
TEXT
8
TEXT
10
1749.0
20
943.0001
1
009
40
22
7
OpenSans-Regular
72
0
73
0
11
1749.0
21
943.0001
0
TEXT
8
TEXT
10
0
20
-150
1
009. Left Board
40
22
7
OpenSans-Regular
72
0
73
0
11
0
21
-150
0
POLYLINE
8
CUTTING_LINES
62
91
66
1
70
0
0
VERTEX
8
CUTTING_LINES
70
0
10
1787.9999999999998
20
114.00019999999972
0
VERTEX
8
CUTTING_LINES
70
0
10
1788.0
20
664.0001999999998
0
VERTEX
8
CUTTING_LINES
70
0
10
1424.0
20
664.0001999999997
0
VERTEX
8
CUTTING_LINES
70
0
10
1423.9999999999998
20
114.00019999999972
0
VERTEX
8
CUTTING_LINES
70
0
10
1787.9999999999998
20
114.00019999999972
0
SEQEND
0
CIRCLE
8
HOLES_diameter_15_depth_14
62
8
10
1456.0
20
151.0002
40
7.5
0
CIRCLE
8
HOLES_diameter_15_depth_14
62
8
10
1456.0
20
599.0002
40
7.5
0
CIRCLE
8
HOLES_diameter_15_depth_14
62
8
10
1756.0
20
151.0002
40
7.5
0
CIRCLE
8
HOLES_diameter_15_depth_14
62
8
10
1756.0
20
599.0002
40
7.5
0
TEXT
8
TEXT
10
1606.0
20
389.0002
1
003
40
22
7
OpenSans-Regular
72
0
73
0
11
1606.0
21
389.0002
0
TEXT
8
TEXT
10
0
20
-180
1
003. Floor
40
22
7
OpenSans-Regular
72
0
73
0
11
0
21
-180
0
POLYLINE
8
CUTTING_LINES
62
91
66
1
70
0
0
VERTEX
8
CUTTING_LINES
70
0
10
2156.0
20
146.00019999999972
0
VERTEX
8
CUTTING_LINES
70
0
10
2156.0
20
664.0001999999996
0
VERTEX
8
CUTTING_LINES
70
0
10
1792.0
20
664.0001999999996
0
VERTEX
8
CUTTING_LINES
70
0
10
1791.9999999999998
20
146.00019999999972
0
VERTEX
8
CUTTING_LINES
70
0
10
2156.0
20
146.00019999999972
0
SEQEND
0
TEXT
8
TEXT
10
1974.0
20
405.0002
1
007
40
22
7
OpenSans-Regular
72
0
73
0
11
1974.0
21
405.0002
0
TEXT
8
TEXT
10
0
20
-210
1
007. Active Layer Board
40
22
7
OpenSans-Regular
72
0
73
0
11
0
21
-210
0
POLYLINE
8
CUTTING_LINES
62
91
66
1
70
0
0
VERTEX
8
CUTTING_LINES
70
0
10
1.9999999999998646
20
114.00009999999997
0
VERTEX
8
CUTTING_LINES
70
0
10
1.9999999999998548
20
34.000099999999975
0
VERTEX
8
CUTTING_LINES
70
0
10
765.9999999999999
20
34.000099999999975
0
VERTEX
8
CUTTING_LINES
70
0
10
765.9999999999999
20
114.00009999999997
0
VERTEX
8
CUTTING_LINES
70
0
10
1.9999999999998646
20
114.00009999999997
0
SEQEND
0
CIRCLE
8
HOLES_diameter_15_depth_14
62
8
10
734.0
20
58.0001
40
7.5
0
CIRCLE
8
HOLES_diameter_15_depth_14
62
8
10
734.0
20
90.0001
40
7.5
0
CIRCLE
8
HOLES_diameter_15_depth_14
62
8
10
34.0
20
58.0001
40
7.5
0
CIRCLE
8
HOLES_diameter_15_depth_14
62
8
10
34.0
20
90.0001
40
7.5
0
TEXT
8
TEXT
10
384.0
20
74.0001
1
013
40
22
7
OpenSans-Regular
72
0
73
0
11
384.0
21
74.0001
0
TEXT
8
TEXT
10
0
20
-240
1
013. Back Pull Bar
40
22
7
OpenSans-Regular
72
0
73
0
11
0
21
-240
0
POLYLINE
8
CUTTING_LINES
62
91
66
1
70
0
0
VERTEX
8
CUTTING_LINES
70
0
10
769.9999999999999
20
110.00009999999997
0
VERTEX
8
CUTTING_LINES
70
0
10
769.9999999999999
20
30.000099999999975
0
VERTEX
8
CUTTING_LINES
70
0
10
1533.9999999999998
20
30.000099999999975
0
VERTEX
8
CUTTING_LINES
70
0
10
1533.9999999999998
20
110.00009999999997
0
VERTEX
8
CUTTING_LINES
70
0
10
769.9999999999999
20
110.00009999999997
0
SEQEND
0
CIRCLE
8
HOLES_diameter_15_depth_14
62
8
10
1502.0
20
86.0001
40
7.5
0
CIRCLE
8
HOLES_diameter_15_depth_14
62
8
10
1502.0
20
54.0001
40
7.5
0
CIRCLE
8
HOLES_diameter_15_depth_14
62
8
10
802.0
20
86.0001
40
7.5
0
CIRCLE
8
HOLES_diameter_15_depth_14
62
8
10
802.0
20
54.0001
40
7.5
0
TEXT
8
TEXT
10
1152.0
20
70.0001
1
014
40
22
7
OpenSans-Regular
72
0
73
0
11
1152.0
21
70.0001
0
TEXT
8
TEXT
10
0
20
-270
1
014. Cover board-Horizontal dress
40
22
7
OpenSans-Regular
72
0
73
0
11
0
21
-270
0
POLYLINE
8
CUTTING_LINES
62
91
66
1
70
0
0
VERTEX
8
CUTTING_LINES
70
0
10
1901.9999999999998
20
30.000299999999697
0
VERTEX
8
CUTTING_LINES
70
0
10
1901.9999999999998
20
110.0002999999997
0
VERTEX
8
CUTTING_LINES
70
0
10
1537.9999999999998
20
110.0002999999997
0
VERTEX
8
CUTTING_LINES
70
0
10
1537.9999999999998
20
30.000299999999697
0
VERTEX
8
CUTTING_LINES
70
0
10
1901.9999999999998
20
30.000299999999697
0
SEQEND
0
CIRCLE
8
HOLES_diameter_15_depth_14
62
8
10
1570.0
20
54.0003
40
7.5
0
CIRCLE
8
HOLES_diameter_15_depth_14
62
8
10
1570.0
20
86.0003
40
7.5
0
CIRCLE
8
HOLES_diameter_15_depth_14
62
8
10
1870.0
20
54.0003
40
7.5
0
CIRCLE
8
HOLES_diameter_15_depth_14
62
8
10
1870.0
20
86.0003
40
7.5
0
TEXT
8
TEXT
10
1720.0
20
70.0003
1
006
40
22
7
OpenSans-Regular
72
0
73
0
11
1720.0
21
70.0003
0
TEXT
8
TEXT
10
0
20
-300
1
006. Cover board-Horizontal dress
40
22
7
OpenSans-Regular
72
0
73
0
11
0
21
-300
0
POLYLINE
8
CUTTING_LINES
62
91
66
1
70
0
0
VERTEX
8
CUTTING_LINES
70
0
10
2270.0
20
62.0002999999997
0
VERTEX
8
CUTTING_LINES
70
0
10
2270.0
20
142.0002999999997
0
VERTEX
8
CUTTING_LINES
70
0
10
1905.9999999999998
20
142.0002999999997
0
VERTEX
8
CUTTING_LINES
70
0
10
1905.9999999999998
20
62.0002999999997
0
VERTEX
8
CUTTING_LINES
70
0
10
2270.0
20
62.0002999999997
0
SEQEND
0
CIRCLE
8
HOLES_diameter_15_depth_14
62
8
10
1938.0
20
118.0003
40
7.5
0
CIRCLE
8
HOLES_diameter_15_depth_14
62
8
10
1938.0
20
86.0003
40
7.5
0
CIRCLE
8
HOLES_diameter_15_depth_14
62
8
10
2238.0
20
118.0003
40
7.5
0
CIRCLE
8
HOLES_diameter_15_depth_14
62
8
10
2238.0
20
86.0003
40
7.5
0
TEXT
8
TEXT
10
2088.0
20
102.0003
1
005
40
22
7
OpenSans-Regular
72
0
73
0
11
2088.0
21
102.0003
0
TEXT
8
TEXT
10
0
20
-330
1
005. Back Pull Bar
40
22
7
OpenSans-Regular
72
0
73
0
11
0
21
-330
0
ENDSEC
0
EOF
0
ENDSEC
0
EOF
